<svg width="50" height="50" viewBox="0 0 50 50" fill="none" xmlns="http://www.w3.org/2000/svg">
<path d="M43.9426 39.2771L4.79854 34.376C3.66123 34.2336 2.85479 33.1962 2.99717 32.0588L5.76377 9.96192C5.90615 8.82461 6.94356 8.01807 8.08096 8.16045L47.225 13.0616C48.3623 13.204 49.1687 14.2415 49.0264 15.3788L46.2597 37.4757C46.1173 38.613 45.0799 39.4195 43.9426 39.2771Z" fill="#3F5EAB"/>
<path d="M42.496 41.8559H3.04639C1.9002 41.8559 0.971001 40.9266 0.971001 39.7805V17.5109C0.971001 16.3648 1.9002 15.4357 3.04639 15.4357H42.496C43.6422 15.4357 44.5714 16.3649 44.5714 17.5109V39.7805C44.5714 40.9266 43.6422 41.8559 42.496 41.8559Z" fill="url(#paint0_linear)"/>
<path d="M16.8362 35.2052C18.093 35.2052 18.0951 33.2521 16.8362 33.2521C13.4277 33.2521 5.62598 33.2521 5.13369 33.2521C3.87695 33.2521 3.8749 35.2052 5.13369 35.2052C5.13369 35.2052 16.3439 35.2052 16.8362 35.2052Z" fill="white"/>
<path d="M20.2217 35.2052C21.0222 35.2052 21.8228 35.2052 22.6232 35.2052C23.88 35.2052 23.8821 33.2521 22.6232 33.2521C21.8228 33.2521 21.0222 33.2521 20.2217 33.2521C18.9649 33.2521 18.9629 35.2052 20.2217 35.2052Z" fill="white"/>
<path d="M31.7662 38.2236C33.7809 38.2236 35.4141 36.5904 35.4141 34.5758C35.4141 32.5611 33.7809 30.9279 31.7662 30.9279C29.7516 30.9279 28.1184 32.5611 28.1184 34.5758C28.1184 36.5904 29.7516 38.2236 31.7662 38.2236Z" fill="url(#paint1_linear)"/>
<path d="M37.6581 38.2236C39.6728 38.2236 41.306 36.5904 41.306 34.5758C41.306 32.5611 39.6728 30.9279 37.6581 30.9279C35.6434 30.9279 34.0103 32.5611 34.0103 34.5758C34.0103 36.5904 35.6434 38.2236 37.6581 38.2236Z" fill="#3F5EAB"/>
<path d="M0.970997 24.3368C2.42061 24.3368 44.3582 24.3975 44.4981 24.3368C44.5153 24.3293 44.5514 24.3368 44.5714 24.3368C44.5894 24.3368 44.5899 21.8954 44.5714 21.8954C43.1219 21.8954 1.18428 21.8348 1.04443 21.8954C1.02705 21.9029 0.991017 21.8954 0.970997 21.8954C0.953126 21.8954 0.952443 24.3368 0.970997 24.3368Z" fill="white"/>
<defs>
<linearGradient id="paint0_linear" x1="5.87397" y1="45.543" x2="39.6685" y2="11.7485" gradientUnits="userSpaceOnUse">
<stop stop-color="#00FFFF"/>
<stop offset="1" stop-color="#FF7BAC"/>
</linearGradient>
<linearGradient id="paint1_linear" x1="28.1183" y1="34.5757" x2="35.414" y2="34.5757" gradientUnits="userSpaceOnUse">
<stop stop-color="#B3B3B3"/>
<stop offset="0.0161" stop-color="#B7B7B7"/>
<stop offset="0.152" stop-color="#D1D1D1"/>
<stop offset="0.3016" stop-color="#E5E5E5"/>
<stop offset="0.4698" stop-color="#F4F4F4"/>
<stop offset="0.6721" stop-color="#FCFCFC"/>
<stop offset="1" stop-color="white"/>
</linearGradient>
</defs>
</svg>
