<svg width="50" height="50" viewBox="0 0 50 50" fill="none" xmlns="http://www.w3.org/2000/svg">
<path d="M19.4792 14.3406L19.4844 14.3427C19.5927 13.8812 19.9865 13.5417 20.4792 13.5417H34.5125C34.5302 13.5417 34.5479 13.5344 34.5656 13.5354C34.2667 8.55729 30.0906 6.25 26.4063 6.25H12.3729C11.8792 6.25 11.4854 6.59896 11.3781 7.05937L11.3729 7.05729L5.23854 35.2219L5.25208 35.2229C5.2375 35.2896 5.21146 35.3531 5.21146 35.425C5.21146 36.001 5.67708 36.4573 6.25313 36.4573H14.6604L19.4792 14.3406Z" fill="#1565C0"/>
<path d="M34.5656 13.5354C34.6208 14.4479 34.5604 15.4406 34.3271 16.5375C32.9927 22.7823 28.1687 26.0323 22.2073 26.0323C22.2073 26.0323 18.5927 26.0323 17.7146 26.0323C17.1719 26.0323 16.9156 26.351 16.7979 26.5948L14.9854 34.9792L14.6677 36.4677H14.6615L13.3458 42.5052L13.3594 42.5063C13.3448 42.5729 13.3188 42.6365 13.3188 42.7083C13.3188 43.2844 13.7844 43.75 14.3604 43.75H21.999L22.0125 43.7396C22.5042 43.7323 22.8948 43.3813 22.9969 42.9188L23.0156 42.9031L24.9031 34.1365C24.9031 34.1365 25.0344 33.3 25.9135 33.3C26.7927 33.3 30.2656 33.3 30.2656 33.3C36.2271 33.3 41.1 30.0646 42.4354 23.8187C43.9375 16.7771 38.9146 13.5615 34.5656 13.5354Z" fill="#039BE5"/>
<path d="M20.4792 13.5417C19.9854 13.5417 19.5917 13.8812 19.4844 14.3427L19.4792 14.3406L16.7969 26.5958C16.9146 26.3521 17.1708 26.0333 17.7135 26.0333C18.5927 26.0333 22.125 26.0333 22.125 26.0333C28.0865 26.0333 32.9917 22.7833 34.326 16.5385C34.5604 15.4417 34.6198 14.449 34.5646 13.5365C34.5479 13.5344 34.5292 13.5417 34.5125 13.5417H20.4792Z" fill="#283593"/>
</svg>
